<svg width="60" height="60" viewBox="0 0 60 60" fill="none" xmlns="http://www.w3.org/2000/svg">
<g clip-path="url(#clip0)">
<path d="M45.7805 23.3254C45.7805 14.6161 38.72 7.55594 30.011 7.55594C21.3014 7.55594 14.2412 14.6161 14.2412 23.3254C14.2412 32.0351 21.3014 39.0952 30.011 39.0952C38.7157 39.085 45.7706 32.0304 45.7805 23.3254ZM30.011 37.1241C22.3902 37.1241 16.2123 30.9462 16.2123 23.3254C16.2123 15.7049 22.3902 9.5267 30.011 9.5267C37.6315 9.5267 43.8094 15.7049 43.8094 23.3254C43.8011 30.9425 37.6281 37.1158 30.011 37.1241Z" fill="#E56217"/>
<path d="M54.8497 53.5927L45.517 37.4383L45.4991 37.4485L45.5485 36.3584L49.5833 35.4641C49.853 35.4045 50.0843 35.2346 50.2227 34.9958C50.3611 34.7577 50.3929 34.4716 50.3111 34.2088L49.0764 30.266L52.5629 28.0429C52.7958 27.894 52.9558 27.6549 53.004 27.3828C53.0519 27.1106 52.9836 26.8311 52.8153 26.6118L50.2959 23.3254L52.8113 20.0443C52.979 19.8253 53.0473 19.5457 52.9994 19.2736C52.9515 19.0018 52.7918 18.7627 52.5589 18.6144L49.0736 16.3894L50.3077 12.4473C50.3905 12.1838 50.3586 11.8981 50.2199 11.6593C50.0819 11.4202 49.8499 11.2503 49.5805 11.1907L45.5451 10.2977L45.3613 6.16589C45.3486 5.89035 45.2217 5.63304 45.0104 5.45573C44.7991 5.27843 44.5242 5.19781 44.2502 5.23271L40.1502 5.76309L38.573 1.94265C38.468 1.6875 38.2595 1.48765 37.9997 1.39312C37.7399 1.29829 37.4523 1.31714 37.2071 1.44471L33.5358 3.34813L30.7372 0.304572C30.5463 0.109658 30.285 0 30.0122 0C29.7392 0 29.4778 0.109658 29.2866 0.304572L26.4893 3.34813L22.8174 1.44471C22.5721 1.31744 22.2846 1.29891 22.0251 1.39343C21.7659 1.48796 21.558 1.6875 21.4521 1.94265L19.8749 5.76309L15.7761 5.23271C15.5027 5.19781 15.2269 5.27781 15.0162 5.45481C14.8049 5.63211 14.678 5.88973 14.6653 6.16496L14.48 10.2934L10.4446 11.1876C10.1758 11.2472 9.94383 11.4174 9.80544 11.6562C9.66706 11.8947 9.63524 12.1801 9.71741 12.4433L10.9514 16.3857L7.46555 18.6123C7.23233 18.7608 7.07202 19.0002 7.02445 19.2721C6.97626 19.5442 7.04452 19.8244 7.21318 20.0431L9.72822 23.3254L7.21318 26.6065C7.04514 26.8258 6.97687 27.1054 7.02506 27.3772C7.07232 27.649 7.23233 27.8884 7.46555 28.0364L10.9505 30.2614L9.71679 34.2038C9.6337 34.467 9.66551 34.753 9.80421 34.9918C9.94228 35.2309 10.1743 35.4005 10.4436 35.4604L14.479 36.3531L14.5282 37.4454L14.5115 37.4355L5.17446 53.5927C4.98356 53.9213 4.99839 54.3309 5.21307 54.6454C5.42776 54.9592 5.80369 55.1217 6.17992 55.0624L11.6391 54.233L13.6509 59.3737C13.789 59.7261 14.1176 59.9689 14.4954 59.9973H14.5696C14.9217 59.9973 15.2473 59.8095 15.423 59.5043L24.0505 44.5664L26.4908 43.2999L29.2885 46.3435C29.4757 46.5464 29.7382 46.6623 30.0141 46.6623C30.2899 46.6623 30.5528 46.5464 30.7391 46.3435L33.5367 43.2999L35.9792 44.567L44.599 59.5074C44.775 59.8126 45.1003 60.0001 45.4527 60.0001H45.5269C45.9044 59.9723 46.2336 59.7292 46.3717 59.3764L48.3811 54.2349L53.8402 55.0642C54.2152 55.1217 54.5893 54.9586 54.803 54.6454C55.0165 54.3318 55.0316 53.9238 54.8417 53.5954L54.8497 53.5927ZM14.7351 56.7465L13.186 52.7818C13.018 52.3521 12.575 52.0957 12.1197 52.1656L7.90665 52.8053L14.7821 40.9057C14.8392 41.0159 14.9158 41.1142 15.0088 41.1957C15.2207 41.3721 15.4966 41.453 15.7699 41.4181L19.8702 40.8877L21.4475 44.7082C21.4824 44.7761 21.5253 44.8388 21.5753 44.8969L14.7351 56.7465ZM32.5937 41.4135L30.0122 44.2207L27.4295 41.4116C27.1284 41.0823 26.6428 40.9968 26.2474 41.2037L23.2607 42.7559L22.9283 42.5644L22.7958 42.7952L21.407 39.4378C21.2386 39.0242 20.8121 38.7764 20.3697 38.8367L16.5842 39.3297L16.4109 35.5139C16.3905 35.0681 16.0745 34.6913 15.6386 34.5952L11.9183 33.7729L13.0597 30.1261C13.1922 29.702 13.0241 29.2411 12.6491 29.0014L9.43446 26.9494L11.7555 23.921C12.0267 23.567 12.0267 23.0755 11.7555 22.7228L9.43446 19.6925L12.6504 17.6414C13.0214 17.4026 13.1885 16.9464 13.0597 16.5247L11.9195 12.8782L15.6439 12.0532C16.0788 11.9568 16.3954 11.5805 16.4155 11.1351L16.586 7.32332L20.3706 7.81632C20.8124 7.87285 21.2374 7.62666 21.4076 7.21552L22.8656 3.69224L26.2511 5.44832C26.6465 5.65497 27.1321 5.56941 27.4333 5.24043L30.0122 2.4304L32.5943 5.2392C32.8964 5.56879 33.3814 5.65435 33.7771 5.44708L37.1626 3.69101L38.6203 7.21552C38.7908 7.62666 39.2158 7.87285 39.6572 7.81632L43.4431 7.32332L43.6123 11.1351C43.6327 11.5808 43.9487 11.9577 44.3846 12.0538L48.1086 12.8782L46.9648 16.5247C46.832 16.9495 47 17.41 47.3747 17.6494L50.5897 19.7014L48.2683 22.7305C47.9977 23.0842 47.9977 23.5753 48.2683 23.9284L50.5897 26.9583L47.3741 29.0094C46.9985 29.2494 46.8304 29.7103 46.9639 30.1353L48.1049 33.7729L44.3806 34.598C43.9456 34.6944 43.629 35.0703 43.6083 35.516L43.4384 39.3278L39.6535 38.8348C39.2118 38.778 38.7868 39.0242 38.6162 39.4356L37.2274 42.7912L37.0959 42.562L36.7626 42.7584L33.773 41.2078C33.3786 41.002 32.8952 41.086 32.5937 41.4135ZM47.9008 52.1656C47.4448 52.0957 47.0022 52.3521 46.8344 52.7818L45.289 56.7465L38.4411 44.8954C38.4911 44.8385 38.5341 44.7761 38.5693 44.7091L40.1465 40.889L44.2453 41.4193C44.5186 41.4533 44.7945 41.3727 45.0061 41.1963C45.1012 41.1135 45.1791 41.0138 45.2347 40.901L52.1135 52.8053L47.9008 52.1656Z" fill="#E56217"/>
<path d="M30.6874 27.6057L30.6858 27.6048C30.032 27.1735 29.5238 26.5595 29.1581 25.7741L29.1565 25.7706L29.1565 25.7706C28.8002 24.9736 28.6261 24.0479 28.6261 23C28.6261 21.9522 28.8001 21.0307 29.157 20.2424L29.1576 20.241C29.5231 19.4464 30.0312 18.8271 30.6858 18.3952L30.6873 18.3943L30.6874 18.3943C31.3505 17.9637 32.1008 17.75 32.9308 17.75C33.7604 17.75 34.5063 17.9635 35.1604 18.3947C35.8246 18.8262 36.3379 19.4454 36.7037 20.2405M30.6874 27.6057L36.4768 20.3455M30.6874 27.6057C31.3505 28.0363 32.1008 28.25 32.9308 28.25C33.7604 28.25 34.5063 28.0365 35.1604 27.6053M30.6874 27.6057L30.8235 27.3961C31.4436 27.7987 32.146 28 32.9308 28C33.7156 28 34.4131 27.7987 35.0235 27.3961M36.7037 20.2405C36.7038 20.2407 36.7039 20.2409 36.7039 20.2411L36.4768 20.3455M36.7037 20.2405C36.7036 20.2403 36.7035 20.2401 36.7035 20.24L36.4768 20.3455M36.7037 20.2405C37.0709 21.0293 37.25 21.9515 37.25 23C37.25 24.0488 37.0708 24.9754 36.7039 25.773L36.7035 25.7741C36.3374 26.5602 35.824 27.1742 35.1604 27.6053M36.4768 20.3455C36.8256 21.0946 37 21.9794 37 23C37 24.0206 36.8256 24.9101 36.4768 25.6685C36.128 26.4176 35.6436 26.9934 35.0235 27.3961M35.1604 27.6053C35.1607 27.6051 35.1609 27.6049 35.1612 27.6048L35.0235 27.3961M35.1604 27.6053C35.1602 27.6054 35.1599 27.6056 35.1597 27.6057L35.0235 27.3961M26.6943 18.0843V17.8343H26.4443H23H22.75V18.0843V18.9831V19.2331H23H25.1479V27.9157V28.1657H25.3979H26.4443H26.6943V27.9157V18.0843ZM34.3426 26.3906L34.3425 26.3906L34.3405 26.3921C33.9406 26.6777 33.474 26.823 32.9308 26.823C32.388 26.823 31.9159 26.6779 31.5055 26.3914C31.1055 26.1053 30.7833 25.6832 30.5458 25.1094C30.3097 24.5389 30.187 23.8382 30.187 23C30.187 22.1618 30.3097 21.4611 30.5458 20.8906C30.7833 20.3169 31.1055 19.8947 31.5055 19.6087C31.9159 19.3221 32.388 19.177 32.9308 19.177C33.474 19.177 33.9406 19.3223 34.3405 19.6079L34.3405 19.6079L34.3426 19.6094C34.7521 19.8957 35.0786 20.3177 35.3157 20.8906C35.5519 21.4611 35.6746 22.1618 35.6746 23C35.6746 23.8382 35.5519 24.5389 35.3157 25.1094C35.0786 25.6823 34.7521 26.1043 34.3426 26.3906Z" fill="#E56217" stroke="#E56217" stroke-width="0.5"/>
</g>
<defs>
<clipPath id="clip0">
<rect width="60" height="60" fill="white"/>
</clipPath>
</defs>
</svg>
