<svg width="16" height="16" viewBox="0 0 16 16" fill="none" xmlns="http://www.w3.org/2000/svg">
<path d="M8 0C8.92826 0 9.8185 0.368749 10.4749 1.02513C11.1313 1.6815 11.5 2.57174 11.5 3.5C11.5 4.42826 11.1313 5.3185 10.4749 5.97487C9.8185 6.63125 8.92826 7 8 7C7.07174 7 6.1815 6.63125 5.52513 5.97487C4.86875 5.3185 4.5 4.42826 4.5 3.5C4.5 2.57174 4.86875 1.6815 5.52513 1.02513C6.1815 0.368749 7.07174 0 8 0ZM8 8.75C11.8675 8.75 15 10.3162 15 12.25V14H1V12.25C1 10.3162 4.1325 8.75 8 8.75Z" fill="#292348"/>
</svg>
