<svg width="60" height="60" viewBox="0 0 60 60" fill="none" xmlns="http://www.w3.org/2000/svg">
<path d="M29.9999 11.2937C30.6814 11.2937 31.239 10.7361 31.239 10.0546V9.43501C31.239 8.75349 30.6814 8.19588 29.9999 8.19588C29.3184 8.19588 28.7607 8.75349 28.7607 9.43501V10.0546C28.7607 10.7361 29.3184 11.2937 29.9999 11.2937Z" fill="#E56217"/>
<path d="M29.9999 49.7064C29.3184 49.7064 28.7607 50.264 28.7607 50.9456V51.5651C28.7607 52.2466 29.3184 52.8042 29.9999 52.8042C30.6814 52.8042 31.239 52.2466 31.239 51.5651V50.9456C31.239 50.264 30.6814 49.7064 29.9999 49.7064Z" fill="#E56217"/>
<path d="M9.55401 29.261H8.93444C8.25292 29.261 7.69531 29.8186 7.69531 30.5001C7.69531 31.1817 8.25292 31.7393 8.93444 31.7393H9.55401C10.2355 31.7393 10.7931 31.1817 10.7931 30.5001C10.7931 29.8186 10.2355 29.261 9.55401 29.261Z" fill="#E56217"/>
<path d="M51.0648 29.261H50.4452C49.7637 29.261 49.2061 29.8186 49.2061 30.5001C49.2061 31.1817 49.7637 31.7393 50.4452 31.7393H51.0648C51.7463 31.7393 52.3039 31.1817 52.3039 30.5001C52.3039 29.8186 51.7463 29.261 51.0648 29.261Z" fill="#E56217"/>
<path d="M15.9971 14.763C15.5015 14.2674 14.758 14.2674 14.2624 14.763C13.7667 15.2587 13.7667 16.0021 14.2624 16.4978L14.6961 16.9315C14.9439 17.1793 15.2537 17.3032 15.5635 17.3032C15.8732 17.3032 16.183 17.1793 16.4308 16.9315C16.9265 16.4358 16.9265 15.6924 16.4308 15.1967L15.9971 14.763Z" fill="#E56217"/>
<path d="M14.6961 44.0683L14.2624 44.502C13.7667 44.9976 13.7667 45.7411 14.2624 46.2368C14.5102 46.4846 14.82 46.6085 15.1298 46.6085C15.4395 46.6085 15.7493 46.4846 15.9971 46.2368L16.4308 45.8031C16.9265 45.3074 16.9265 44.564 16.4308 44.0683C15.9352 43.5727 15.1917 43.5727 14.6961 44.0683Z" fill="#E56217"/>
<path d="M44.0037 14.763L43.57 15.1967C43.0743 15.6924 43.0743 16.4358 43.57 16.9315C43.8178 17.1793 44.1276 17.3032 44.4374 17.3032C44.7472 17.3032 45.0569 17.1793 45.3048 16.9315L45.7385 16.4978C46.2341 16.0021 46.2341 15.2587 45.7385 14.763C45.2428 14.2674 44.4993 14.2674 44.0037 14.763Z" fill="#E56217"/>
<path d="M31.239 30.0042V18.7281C31.239 18.0466 30.6814 17.489 29.9999 17.489C29.3184 17.489 28.7607 18.0466 28.7607 18.7281V30.4998C28.7607 30.8096 28.8847 31.1194 29.1325 31.3672L42.7009 44.9357C42.9488 45.1835 43.2586 45.3075 43.5683 45.3075C43.8781 45.3075 44.1879 45.1835 44.4357 44.9357C44.9314 44.4401 44.9314 43.6966 44.4357 43.2009L31.239 30.0042Z" fill="#E56217"/>
<path d="M30 2C14.263 2 1.5 14.763 1.5 30.5C1.5 46.237 14.263 59 30 59C45.737 59 58.5 46.237 58.5 30.5C58.5 14.763 45.737 2 30 2ZM30 56.5217C15.6261 56.5217 3.97826 44.8739 3.97826 30.5C3.97826 16.1261 15.6261 4.47826 30 4.47826C44.3739 4.47826 56.0217 16.1261 56.0217 30.5C56.0217 44.8739 44.3739 56.5217 30 56.5217Z" fill="#E56217"/>
</svg>
