<svg width="60" height="60" viewBox="0 0 60 60" fill="none" xmlns="http://www.w3.org/2000/svg">
<path d="M52.2391 22.3163C51.7221 21.4134 51.6086 20.3271 51.9271 19.3358C52.6435 17.1075 51.8592 14.6832 49.9755 13.3034C49.1376 12.6896 48.5938 11.7436 48.4834 10.708C48.2355 8.3796 46.5373 6.48538 44.2577 5.99425C43.2436 5.77575 42.3636 5.13371 41.8435 4.23271C40.674 2.20697 38.3556 1.1701 36.074 1.6528C35.0588 1.86731 33.9952 1.64038 33.1552 1.02957C31.2663 -0.343304 28.7285 -0.343076 26.8398 1.02957C25.9997 1.64027 24.9358 1.86731 23.9209 1.6528C21.6397 1.17022 19.3211 2.20685 18.1515 4.23271C17.6313 5.13371 16.7513 5.77575 15.7374 5.99425C13.4578 6.48527 11.7596 8.3796 11.5115 10.708C11.4012 11.7438 10.8574 12.6897 10.0194 13.3034C8.13578 14.6833 7.3516 17.1076 8.06792 19.3358C8.38658 20.327 8.27287 21.4134 7.75606 22.3163C6.59408 24.3465 6.8593 26.8815 8.4162 28.6244C9.10869 29.3998 9.44483 30.4388 9.33838 31.4749C9.09904 33.8042 10.3679 36.0117 12.4961 36.9678C13.4427 37.3932 14.1705 38.2051 14.4929 39.1952C14.5586 39.3969 14.6355 39.5926 14.7222 39.7818L8.76585 49.9736C8.12091 51.0774 9.02993 52.4385 10.2871 52.2643L16.6367 51.389L18.9711 57.3838C19.4339 58.5724 21.0592 58.7045 21.7041 57.6012L28.8827 45.3181C29.6073 45.0874 30.3882 45.0876 31.1126 45.3182L38.2911 57.6013C38.9371 58.706 40.562 58.5705 41.024 57.3838L43.3584 51.389L49.7081 52.2643C50.9717 52.438 51.8716 51.0728 51.2293 49.9736L45.2729 39.782C45.3597 39.5926 45.4367 39.3971 45.5024 39.1952C45.8247 38.2052 46.5526 37.3933 47.499 36.9678C49.6272 36.0117 50.8962 33.804 50.6567 31.475C50.5504 30.4388 50.8864 29.3999 51.579 28.6244C53.1358 26.8814 53.401 24.3464 52.2391 22.3163ZM20.4224 56.417L18.1707 50.6348C17.9134 49.9738 17.2447 49.5798 16.5446 49.676L10.4202 50.5203L15.7917 41.3295C16.7769 42.3253 18.1342 42.9206 19.6021 42.9233C20.6391 42.9253 21.6328 43.3696 22.3282 44.1424C23.4295 45.3662 24.9872 45.9898 26.5568 45.9205L20.4224 56.417ZM49.575 50.5203L43.4506 49.676C42.7509 49.5796 42.082 49.9737 41.8245 50.6348L39.5729 56.417L33.4386 45.9207C33.5172 45.9243 33.5958 45.9268 33.6744 45.9268C35.1632 45.9268 36.621 45.3048 37.6671 44.1422C38.3626 43.3694 39.356 42.9252 40.3932 42.9232C41.8611 42.9205 43.2185 42.3252 44.2036 41.3292L49.575 50.5203ZM50.3119 27.4829C49.2994 28.6165 48.808 30.1355 48.9637 31.6505C49.1274 33.2436 48.2595 34.7532 46.8039 35.4073C45.4199 36.0293 44.3558 37.2163 43.8845 38.6638C43.389 40.186 41.9848 41.2108 40.3901 41.2138C38.8737 41.2165 37.4209 41.8662 36.4041 42.9962C35.335 44.1843 33.6371 44.547 32.1791 43.8981C30.7897 43.28 29.1999 43.2824 27.816 43.8981C26.3578 44.5467 24.6601 44.1842 23.591 42.9962C22.5742 41.8662 21.1214 41.2165 19.6052 41.2138C18.0106 41.2108 16.6062 40.186 16.1106 38.6638C15.6393 37.2162 14.5753 36.0293 13.1912 35.4073C11.7356 34.7533 10.8678 33.2435 11.0316 31.6505C11.1873 30.1357 10.6959 28.6166 9.68338 27.4828C8.61855 26.2907 8.4372 24.5569 9.23182 23.1684C9.98752 21.8482 10.1538 20.2597 9.68792 18.8103C9.19789 17.2862 9.73433 15.6282 11.0226 14.6844C12.2477 13.7871 13.0428 12.404 13.2041 10.8896C13.3738 9.29712 14.5352 8.00153 16.0944 7.66563C17.577 7.34626 18.8635 6.40742 19.6242 5.08994C20.4241 3.70442 22.0095 2.99479 23.5702 3.32544C25.0538 3.63957 26.6095 3.3072 27.8379 2.41441C29.1296 1.47523 30.8656 1.47523 32.1573 2.41441C33.3858 3.3072 34.9417 3.639 36.4251 3.32544C37.9851 2.9957 39.5712 3.70431 40.371 5.08994C41.1317 6.40742 42.4182 7.34626 43.9007 7.66563C45.46 8.00153 46.6216 9.29712 46.7911 10.8896C46.9524 12.4041 47.7476 13.7872 48.9726 14.6844C50.2609 15.6282 50.7974 17.2863 50.3074 18.8103C49.8415 20.2597 50.0076 21.8481 50.7634 23.1684C51.558 24.5568 51.3766 26.2907 50.3119 27.4829Z" fill="#E56217"/>
<path d="M37.2184 28.8438L37.2836 28.771C41.2532 24.3109 40.3825 17.2545 35.2494 13.9626C34.0177 13.1725 32.3986 14.0684 32.3986 15.5355V21.7734C32.3986 22.4171 31.8773 22.9407 31.2364 22.9407H28.7615C28.1207 22.9407 27.5993 22.4171 27.5993 21.7734V15.5355C27.5993 14.0674 25.9798 13.1729 24.7485 13.9626C19.6354 17.242 18.7294 24.2935 22.7163 28.7733L22.755 28.8166C24.348 30.5938 25.2252 32.876 25.2252 35.2425V36.0144C19.9374 34.0571 16.1563 28.9458 16.1563 22.9639C16.1563 19.8992 17.1294 16.9932 18.9706 14.5601C19.255 14.1842 19.1822 13.6479 18.808 13.3623C18.4337 13.0769 17.8999 13.1497 17.6153 13.5257C15.5472 16.2587 14.4541 19.5225 14.4541 22.9641C14.4541 35.9227 29.2803 43.1188 39.393 35.4039C39.7674 35.1183 39.8403 34.582 39.556 34.2062C39.2718 33.8302 38.7378 33.7573 38.3635 34.0425C37.2553 34.888 36.0478 35.5487 34.7726 36.0193V35.2427C34.7727 32.8679 35.6419 30.5948 37.2184 28.8438ZM29.9991 36.8666C28.9438 36.8666 27.9158 36.7468 26.9276 36.5211V35.2425C26.9276 32.4527 25.8951 29.7645 24.0206 27.6732L23.9836 27.6318C20.7095 23.953 21.4205 18.1255 25.6646 15.4036C25.7664 15.3396 25.8972 15.4146 25.8972 15.5356V21.7735C25.8972 23.3598 27.1821 24.6504 28.7615 24.6504H31.2364C32.8158 24.6504 34.1008 23.3598 34.1008 21.7735V15.5355C34.1008 15.4135 34.2331 15.3393 34.3333 15.4035C38.5579 18.1129 39.3044 23.9354 36.0112 27.6355L35.9576 27.6952C34.0958 29.763 33.0706 32.4432 33.0706 35.2425V36.5231C32.0735 36.7489 31.046 36.8666 29.9991 36.8666Z" fill="#E56217"/>
<path d="M30.001 37.6055C38.1423 37.6055 44.7347 30.9782 44.7347 22.812C44.7347 14.6459 38.1423 8.01856 30.001 8.01856C21.8596 8.01856 15.2672 14.6459 15.2672 22.812C15.2672 30.9782 21.8596 37.6055 30.001 37.6055ZM44.8476 22.812C44.8476 31.0538 38.1965 37.7276 30.001 37.7276C21.8055 37.7276 15.1543 31.0538 15.1543 22.812C15.1543 14.5703 21.8055 7.89648 30.001 7.89648C38.1965 7.89648 44.8476 14.5703 44.8476 22.812Z" fill="#E56217" stroke="#E56217" stroke-width="2"/>
</svg>
