<svg width="60" height="60" viewBox="0 0 60 60" fill="none" xmlns="http://www.w3.org/2000/svg">
<g clip-path="url(#clip0)">
<path d="M30.0088 18.7744C25.8689 18.7744 22.4854 21.5808 22.4854 25.0241C22.4854 28.4673 25.8689 31.2737 30.0088 31.2737V28.6862C27.2821 28.6862 25.0729 27.0342 25.0729 25.0239C25.0729 23.0137 27.2821 21.3616 30.0088 21.3616C32.7355 21.3616 34.9448 23.0135 34.9448 25.0239H37.5323C37.5323 21.5808 34.1488 18.7744 30.0088 18.7744Z" fill="#E56217"/>
<path d="M30.0088 28.6866V31.2741C32.7355 31.2741 34.9448 32.926 34.9448 34.9364C34.9448 36.9468 32.7355 38.5987 30.0088 38.5987C27.2821 38.5987 25.0729 36.9468 25.0729 34.9364H22.4854C22.4854 38.3796 25.8689 41.186 30.0088 41.186C34.1488 41.186 37.5323 38.3796 37.5323 34.9364C37.5323 31.493 34.1488 28.6866 30.0088 28.6866Z" fill="#E56217"/>
<path d="M31.3033 16.2469H28.7158V20.0683H31.3033V16.2469Z" fill="#E56217"/>
<path d="M31.3033 39.892H28.7158V43.7134H31.3033V39.892Z" fill="#E56217"/>
<path d="M58.5723 31.8711C57.5969 30.7963 57.5969 29.2041 58.5723 28.1491C59.7665 26.8554 60.2441 25.0641 59.8659 23.3523C59.4679 21.6207 58.2338 20.2076 56.5818 19.5508C55.2085 18.9934 54.492 17.5604 54.91 16.187C55.3876 14.5749 55.0891 12.8433 54.074 11.4899C53.039 10.0966 51.4468 9.30059 49.7152 9.30059C49.5758 9.30059 49.4564 9.32056 49.3369 9.32056C47.8442 9.40023 46.5505 8.38516 46.3117 6.97189C45.8738 4.36461 43.6048 2.45388 40.9178 2.45388C40.0022 2.45388 39.0668 2.69272 38.2508 3.15044C37.8129 3.40925 37.3154 3.52867 36.8178 3.52867C35.8824 3.52867 35.0065 3.07095 34.4691 2.3145C33.4341 0.861486 31.8021 0.0255432 29.9908 0.0255432C28.1796 0.0255432 26.5674 0.841521 25.5126 2.29453C24.9951 3.0508 24.0995 3.48874 23.1639 3.48874C22.6663 3.48874 22.1886 3.36932 21.7508 3.13047C20.9349 2.67276 19.9993 2.43392 19.0838 2.43392C16.3769 2.43392 14.1079 4.32468 13.6899 6.95193C13.4711 8.30548 12.2769 9.30059 10.8638 9.30059C10.8041 9.30059 10.7244 9.30059 10.6647 9.30059C10.5453 9.28063 10.4259 9.28063 10.3064 9.28063C8.57484 9.28063 6.92292 10.1166 5.90784 11.4899C4.89277 12.8632 4.59422 14.5749 5.09187 16.207C5.50984 17.5604 4.79331 19.0134 3.41998 19.5508C1.74809 20.2076 0.533924 21.6207 0.135918 23.3523C-0.262088 25.0441 0.235373 26.8354 1.42958 28.1291C2.40491 29.2039 2.40491 30.7961 1.42958 31.8511C0.235373 33.1447 -0.242309 34.9361 0.135918 36.6479C0.533924 38.3795 1.76806 39.7925 3.41998 40.4494C4.79331 41.0067 5.50984 42.4398 5.09187 43.8131C4.61418 45.4452 4.91273 47.1569 5.92781 48.5302C6.98263 49.9235 8.57502 50.7195 10.3264 50.7195C10.4458 50.7195 10.5453 50.6996 10.6647 50.6996C12.1574 50.6199 13.4511 51.6349 13.6899 53.0482C14.1279 55.6755 16.3969 57.5662 19.0838 57.5662C19.9995 57.5662 20.9349 57.3274 21.7508 56.8697C22.1888 56.6109 22.6862 56.4914 23.1839 56.4914C24.1193 56.4914 24.9951 56.9294 25.5325 57.6856C26.5676 59.1187 28.2395 59.9746 30.0108 59.9746C31.8021 59.9746 33.474 59.1187 34.4691 57.6856C34.9865 56.9294 35.8624 56.4914 36.8178 56.4914C37.3154 56.4914 37.7931 56.6109 38.2308 56.8497C39.0468 57.3074 39.9824 57.5463 40.8978 57.5463C43.6048 57.5463 45.8738 55.6555 46.2917 53.0283C46.5106 51.6749 47.7048 50.6796 49.1181 50.6796C49.1778 50.6796 49.2575 50.6796 49.3172 50.6796C49.4366 50.6996 49.556 50.6996 49.6754 50.6996C51.427 50.6996 53.0392 49.9034 54.074 48.5102C55.0891 47.1369 55.4076 45.4253 54.91 43.7931C54.492 42.4398 55.2085 40.9868 56.5818 40.4494C58.2537 39.7925 59.4679 38.3795 59.8659 36.6479C60.2639 34.9562 59.7665 33.1649 58.5723 31.8711ZM56.6216 33.5829C57.2584 34.2397 57.4973 35.1353 57.2984 36.031C57.0993 36.9266 56.4824 37.6432 55.5867 38.0014C52.9595 39.0562 51.5862 41.8626 52.4021 44.5098C52.641 45.3458 52.4818 46.2414 51.9642 46.938C51.4268 47.6745 50.5909 48.0925 49.6555 48.0925C49.5957 48.0925 49.536 48.0925 49.4763 48.0925C46.65 47.8934 44.1821 49.8638 43.7441 52.5907C43.5053 54.1232 42.132 54.9394 40.9178 54.9394C40.4202 54.9394 39.9425 54.8199 39.5047 54.5811C38.6888 54.1234 37.7731 53.8845 36.8377 53.8845C35.0664 53.8845 33.3945 54.7404 32.3794 56.1735C31.842 56.9298 30.9861 57.3677 30.0308 57.3677C29.0554 57.3677 28.1997 56.9298 27.6623 56.1735C26.6473 54.7404 24.9754 53.8845 23.204 53.8845C22.2686 53.8845 21.353 54.1234 20.5171 54.5413C20.0791 54.8002 19.6014 54.9196 19.104 54.9196C17.8898 54.9196 16.5364 54.1234 16.2776 52.5709C15.8397 49.9437 13.5707 48.0529 10.864 48.0529C10.7645 48.0529 10.6649 48.0529 10.5455 48.0529C9.55035 48.1126 8.61477 47.6747 8.03763 46.8984C7.50024 46.2019 7.36085 45.326 7.59969 44.4901C8.41567 41.8231 7.0623 39.0167 4.41509 37.9617C3.5394 37.6034 2.90237 36.8869 2.70346 35.9912C2.50436 35.0956 2.7432 34.1999 3.38024 33.5232C5.29096 31.473 5.29096 28.3681 3.38024 26.2982C2.74339 25.6414 2.50455 24.7458 2.70346 23.8501C2.90255 22.9545 3.51943 22.2379 4.41509 21.8797C7.04234 20.8249 8.41567 18.0382 7.59969 15.3713C7.34089 14.5353 7.50024 13.6596 8.01767 12.9629C8.55506 12.2264 9.391 11.8084 10.3264 11.8084C10.3861 11.8084 10.4458 11.8084 10.5055 11.8084C13.3319 12.0075 15.7998 10.0371 16.2377 7.31019C16.4766 5.77769 17.8499 4.96153 19.0641 4.96153C19.5617 4.96153 20.0394 5.08095 20.4771 5.31979C21.2931 5.7775 22.2087 6.01634 23.1441 6.01634C24.9155 6.01634 26.5874 5.16044 27.6024 3.74736C28.1598 2.99109 29.0155 2.55315 29.9709 2.55315C30.9262 2.55315 31.7821 3.01087 32.3393 3.76732C33.3544 5.20037 35.0263 6.05627 36.7976 6.05627C37.7132 6.05627 38.6486 5.81743 39.4646 5.35972C39.9025 5.10091 40.3802 4.98149 40.8777 4.98149C42.0919 4.98149 43.4452 5.77769 43.704 7.33015C44.142 9.95741 46.411 11.8482 49.1177 11.8482C49.2371 11.8482 49.3366 11.8482 49.456 11.8482C50.4711 11.7685 51.3867 12.2064 51.9638 12.9827C52.5012 13.6792 52.6406 14.5551 52.4018 15.391C51.5858 18.058 52.9391 20.8644 55.5864 21.9194C56.4621 22.2777 57.0991 22.9942 57.298 23.8899C57.4971 24.7855 57.2583 25.6812 56.6212 26.3579C54.7109 28.4079 54.7109 31.5128 56.6216 33.5829Z" fill="#E56217"/>
<path d="M30.0098 8.72339C18.2866 8.72339 8.75293 18.2571 8.75293 29.9802C8.75293 41.7034 18.2866 51.2371 30.0098 51.2371C41.7329 51.2371 51.2666 41.7034 51.2666 29.9802C51.2666 18.2571 41.7329 8.72339 30.0098 8.72339ZM30.0098 48.6496C19.7196 48.6496 11.3404 40.2702 11.3404 29.9802C11.3404 19.6903 19.7196 11.3109 30.0098 11.3109C40.2999 11.3109 48.6791 19.6903 48.6791 29.9802C48.6791 40.2702 40.2999 48.6496 30.0098 48.6496Z" fill="#E56217"/>
</g>
<defs>
<clipPath id="clip0">
<rect width="60" height="60" fill="white"/>
</clipPath>
</defs>
</svg>
