<svg width="16" height="16" viewBox="0 0 16 16" fill="none" xmlns="http://www.w3.org/2000/svg">
<path d="M14.6654 5.7385V11.1665C14.6654 11.7199 14.4537 12.2524 14.0736 12.6547C13.6935 13.0569 13.1739 13.2985 12.6214 13.3298L12.4987 13.3332H3.4987C2.94527 13.3332 2.41281 13.1215 2.01054 12.7414C1.60828 12.3613 1.3667 11.8417 1.33536 11.2892L1.33203 11.1665V5.7385L7.7667 9.10917C7.83828 9.14667 7.91789 9.16625 7.9987 9.16625C8.07951 9.16625 8.15911 9.14667 8.2307 9.10917L14.6654 5.7385ZM3.4987 2.6665H12.4987C13.0358 2.66644 13.5537 2.86583 13.9521 3.22602C14.3504 3.5862 14.6008 4.08149 14.6547 4.61584L7.9987 8.1025L1.3427 4.61584C1.39438 4.10271 1.6274 3.62485 1.99986 3.26815C2.37233 2.91144 2.85982 2.6993 3.3747 2.66984L3.4987 2.6665H12.4987H3.4987Z" fill="#292348"/>
</svg>
